<svg width="14" height="14" viewBox="0 0 14 14" fill="none" xmlns="http://www.w3.org/2000/svg">
<path d="M0.207153 0.207031C0.483296 -0.0691112 0.931011 -0.0691111 1.20715 0.207031L13.2072 12.207C13.4833 12.4832 13.4833 12.9309 13.2072 13.207C12.931 13.4832 12.4833 13.4832 12.2072 13.207L0.207154 1.20703C-0.068988 0.93089 -0.0689891 0.483174 0.207153 0.207031Z" fill="#3B3F46"/>
<path d="M13.2072 0.207031C13.4833 0.483174 13.4833 0.930889 13.2072 1.20703L1.20715 13.207C0.931012 13.4832 0.483296 13.4832 0.207153 13.207C-0.0689891 12.9309 -0.068989 12.4832 0.207153 12.207L12.2072 0.207032C12.4833 -0.06911 12.931 -0.0691112 13.2072 0.207031Z" fill="#3B3F46"/>
</svg>
