<svg width="744" height="241" viewBox="0 0 744 241" fill="none" xmlns="http://www.w3.org/2000/svg">
<path d="M5.65925e-06 236.686L41.6514 9.82362e-06H134.21L160.986 153.383H164.292L243.628 9.82362e-06H337.839L295.857 236.686H228.422L253.545 94.5421H250.239L174.87 236.686H120.987L95.8644 94.8727H92.5587L67.4357 236.686H5.65925e-06ZM327.184 236.686L368.835 9.82362e-06H438.585L427.676 63.4688H472.633C501.282 63.4688 522.769 71.5126 537.094 87.6002C551.418 103.688 556.377 124.293 551.969 149.416C547.562 174.76 535.331 195.696 515.276 212.224C495.442 228.532 471.311 236.686 442.882 236.686H327.184ZM558.25 236.686L599.901 9.82362e-06H669.651L628 236.686H558.25ZM407.512 177.184H444.204C453.901 177.184 462.275 174.429 469.328 168.92C476.6 163.41 481.008 156.579 482.55 148.425C483.872 140.271 481.889 133.549 476.6 128.26C471.531 122.971 464.149 120.326 454.452 120.326H417.429L407.512 177.184ZM727.314 123.963C719.821 130.133 711.006 133.218 700.869 133.218C690.732 133.218 682.908 130.023 677.399 123.632C672.11 117.241 670.236 109.087 671.779 99.1701C673.542 89.6938 678.17 81.8704 685.663 75.6998C693.376 69.3089 702.081 66.1134 711.778 66.1134C721.915 66.1134 729.738 69.4191 735.248 76.0304C740.757 82.4214 742.631 90.4652 740.868 100.162C739.325 109.858 734.807 117.792 727.314 123.963ZM708.472 231.066C700.979 237.237 692.164 240.322 682.027 240.322C671.889 240.322 664.066 237.127 658.556 230.736C653.047 224.345 651.174 216.191 652.937 206.274C654.7 196.577 659.328 188.754 666.821 182.804C674.313 176.633 683.018 173.548 692.935 173.548C703.073 173.548 710.896 176.743 716.406 183.134C721.915 189.525 723.788 197.569 722.025 207.265C720.483 216.962 715.965 224.896 708.472 231.066Z" fill="url(#paint0_linear_6005_322)"/>
<defs>
<linearGradient id="paint0_linear_6005_322" x1="740.364" y1="151.686" x2="-3.63623" y2="151.686" gradientUnits="userSpaceOnUse">
<stop offset="0.212366" stop-color="#D4FF00" stop-opacity="0.1"/>
<stop offset="0.790323" stop-color="#D4FF00"/>
</linearGradient>
</defs>
</svg>
