<svg width="296" height="27" viewBox="0 0 296 27" fill="none" xmlns="http://www.w3.org/2000/svg">
<path d="M0 2.81763H35.3571V7.71423H8.60612V9.89754H29.3795C30.3758 9.89754 31.2873 10.0459 32.1352 10.3427C32.9618 10.6394 33.6826 11.0422 34.2761 11.5721C34.8696 12.1021 35.3359 12.738 35.6539 13.4799C35.9931 14.2006 36.1626 15.0061 36.1626 15.8964C36.1626 16.7867 35.9931 17.5922 35.6539 18.3341C35.3359 19.0548 34.8696 19.6907 34.2761 20.2207C33.6826 20.7506 32.9618 21.1533 32.1352 21.4501C31.3085 21.7468 30.3758 21.8952 29.3795 21.8952H0V2.81763ZM26.3907 16.9775C27.1962 16.9775 27.5777 16.6171 27.5777 15.8964C27.5777 15.1757 27.175 14.8153 26.3907 14.8153H8.60612V16.9986H26.3907V16.9775Z" fill="white"/>
<path d="M85.1283 7.7141C84.3228 7.7141 83.9413 8.07445 83.9413 8.79516V9.34628H75.3563V8.79516C75.3563 7.90487 75.5259 7.07816 75.8439 6.31505C76.183 5.55195 76.6494 4.89485 77.2641 4.32252C77.8576 3.7502 78.5783 3.32623 79.405 3.00828C80.2317 2.69032 81.1644 2.52075 82.1607 2.52075H104.693C105.69 2.52075 106.601 2.64792 107.449 2.92348C108.276 3.17785 108.997 3.55941 109.59 4.04695C110.184 4.53449 110.65 5.12801 110.968 5.84872C111.307 6.54823 111.477 7.35374 111.477 8.24403C111.477 9.17671 111.286 9.961 110.883 10.6393C110.48 11.3176 109.929 11.8476 109.187 12.2715C109.908 12.6955 110.48 13.2254 110.883 13.9037C111.286 14.582 111.477 15.3663 111.477 16.299C111.477 17.1893 111.307 17.9948 110.968 18.6943C110.65 19.3938 110.184 20.0085 109.59 20.4961C108.997 20.9836 108.276 21.3652 107.449 21.6407C106.622 21.8951 105.69 22.0223 104.693 22.0223H82.1395C81.1432 22.0223 80.2317 21.8739 79.3838 21.5559C78.5571 21.238 77.8364 20.7929 77.2429 20.2205C76.6494 19.6482 76.183 18.9911 75.8227 18.228C75.5047 17.4649 75.3351 16.6382 75.3351 15.7479V15.1967H83.9201V15.7479C83.9201 16.4686 84.3228 16.8289 85.1071 16.8289H101.683C102.489 16.8289 102.87 16.4686 102.87 15.7479C102.87 15.0272 102.468 14.6668 101.683 14.6668H86.0822V9.87621H101.683C102.489 9.87621 102.87 9.51587 102.87 8.79516C102.87 8.07445 102.468 7.7141 101.683 7.7141H85.1283Z" fill="white"/>
<path d="M129.961 2.81763H159.319C160.315 2.81763 161.227 2.94483 162.075 3.178C162.901 3.41117 163.622 3.77152 164.216 4.23786C164.809 4.68301 165.275 5.25534 165.593 5.93365C165.933 6.61196 166.102 7.37507 166.102 8.26536C166.102 9.19804 165.89 10.0035 165.466 10.6819C165.063 11.3602 164.491 11.9325 163.728 12.3352C164.491 12.7592 165.063 13.3103 165.466 13.9886C165.89 14.667 166.102 15.4937 166.102 16.4051C166.102 17.2954 165.933 18.0797 165.593 18.7368C165.275 19.4152 164.809 19.9875 164.216 20.4538C163.622 20.899 162.901 21.2593 162.075 21.4925C161.248 21.7257 160.315 21.8528 159.319 21.8528H129.961V2.81763ZM138.546 9.89754H156.33C157.136 9.89754 157.517 9.53719 157.517 8.81648C157.517 8.09577 157.114 7.73542 156.33 7.73542H138.546V9.89754ZM156.33 16.9775C157.136 16.9775 157.517 16.6171 157.517 15.8964C157.517 15.1757 157.114 14.8153 156.33 14.8153H138.546V16.9986H156.33V16.9775Z" fill="white"/>
<path d="M239.656 21.8529H214.961V24.0362H206.376V15.3453H209.429L212.184 9.28284C214.156 4.97978 217.505 2.83887 222.19 2.83887H246.079V15.3453H248.262V24.0362H239.677V21.8529H239.656ZM218.798 15.3453H237.473V9.36763H224.288C222.465 9.36763 221.193 10.1943 220.43 11.8477L218.798 15.3453Z" fill="white"/>
<path d="M250.171 2.81763H258.756V6.63315H278.724C279.911 6.63315 280.992 6.84514 281.925 7.29028C282.858 7.73543 283.663 8.30775 284.32 9.02846C284.977 9.72797 285.465 10.5335 285.825 11.445C286.164 12.3564 286.334 13.2891 286.334 14.243C286.334 15.1757 286.164 16.1296 285.825 17.0411C285.486 17.9525 284.977 18.758 284.32 19.4788C283.663 20.1783 282.879 20.7506 281.925 21.1957C280.992 21.6409 279.911 21.8528 278.724 21.8528H250.171V2.81763ZM287.415 2.81763H296V21.8528H287.415V2.81763ZM258.756 13.1619V15.3453H276.541C277.346 15.3453 277.728 14.9849 277.728 14.2642C277.728 13.5435 277.325 13.1831 276.541 13.1831H258.756V13.1619Z" fill="white"/>
<path d="M192.917 0.591885C194.146 0.125544 195.376 -0.0652219 196.647 0.0195674C197.919 0.104357 199.106 0.422322 200.23 0.952255C201.353 1.48219 202.371 2.2029 203.24 3.15678C204.13 4.08947 204.808 5.14932 205.275 6.37877C205.741 7.60821 205.932 8.85886 205.889 10.1519C205.847 11.4237 205.571 12.632 205.084 13.7978C204.596 14.9213 203.918 15.9388 203.007 16.8503C202.116 17.7617 201.056 18.44 199.827 18.8852L181.258 25.9015C180.029 26.3678 178.799 26.5586 177.527 26.4738C176.256 26.3891 175.047 26.0923 173.924 25.5623C172.8 25.0112 171.804 24.2905 170.914 23.3578C170.024 22.4039 169.366 21.3229 168.9 20.1146C168.434 18.8852 168.222 17.6557 168.264 16.3627C168.307 15.0697 168.582 13.8402 169.07 12.7168C169.557 11.5509 170.257 10.5335 171.168 9.62197C172.058 8.71048 173.118 8.03215 174.348 7.56581L192.917 0.591885ZM193.765 7.8202L178.502 13.5859C177.782 13.8614 177.273 14.3278 176.976 15.0061C176.68 15.6844 176.658 16.3839 176.913 17.0834C177.188 17.8041 177.655 18.3129 178.333 18.6096C179.011 18.9064 179.711 18.9276 180.41 18.6732L195.672 12.9076C196.393 12.632 196.902 12.1656 197.199 11.4873C197.495 10.809 197.516 10.1095 197.262 9.41C196.987 8.68929 196.52 8.18053 195.842 7.88377C195.185 7.56581 194.485 7.54463 193.765 7.8202Z" fill="white"/>
<path d="M73.2578 6.10316H42.2461C41.7586 6.10316 41.3558 6.50593 41.3558 6.99347C41.3558 7.48101 41.7586 7.88375 42.2461 7.88375H69.1879C71.4561 8.07452 73.2366 9.98229 73.2366 12.2928C73.2366 14.6033 71.4561 16.5111 69.1879 16.7018H42.2461C41.7586 16.7018 41.3558 17.1046 41.3558 17.5921C41.3558 18.0797 41.7586 18.4824 42.2461 18.4824H73.2578V21.7892H42.2461C39.9144 21.7892 38.0491 19.9026 38.0491 17.5921C38.0491 15.2816 39.9356 13.3951 42.2461 13.3951H68.8064C69.4211 13.3951 69.9086 12.9075 69.9086 12.2928C69.9086 11.6781 69.4211 11.1905 68.8064 11.1905H42.2461C39.9144 11.1905 38.0491 9.30398 38.0491 6.99347C38.0491 4.66176 39.9356 2.79639 42.2461 2.79639H73.2578V6.10316Z" fill="#D5FE02"/>
</svg>
