<svg width="50" height="45" viewBox="0 0 50 45" fill="none" xmlns="http://www.w3.org/2000/svg">
<path d="M25 0.833008C32.1496 0.833008 35.7245 0.833421 38.5039 2.1084C41.5501 3.50582 43.9942 5.94987 45.3916 8.99609C46.6666 11.7755 46.667 15.3504 46.667 22.5C46.667 29.6496 46.6666 33.2245 45.3916 36.0039C43.9942 39.0501 41.5501 41.4942 38.5039 42.8916C35.7245 44.1666 32.1496 44.167 25 44.167C17.8504 44.167 14.2755 44.1666 11.4961 42.8916C8.44987 41.4942 6.00582 39.0501 4.6084 36.0039C3.33342 33.2245 3.33301 29.6496 3.33301 22.5C3.33301 15.3504 3.33342 11.7755 4.6084 8.99609C6.00582 5.94987 8.44987 3.50582 11.4961 2.1084C14.2755 0.83342 17.8504 0.833008 25 0.833008ZM25.001 8.96289C17.5243 8.96289 11.4629 15.0243 11.4629 22.501C11.4634 29.9772 17.5246 36.0381 25.001 36.0381C32.4769 36.0376 38.5376 29.9769 38.5381 22.501C38.5381 15.0246 32.4772 8.9634 25.001 8.96289ZM25.001 13.9629C29.7158 13.9634 33.5381 17.786 33.5381 22.501C33.5376 27.2155 29.7155 31.0376 25.001 31.0381C20.286 31.0381 16.4634 27.2158 16.4629 22.501C16.4629 17.7857 20.2857 13.9629 25.001 13.9629ZM38.8994 5.33008C37.0934 5.33014 35.6291 6.79455 35.6289 8.60059C35.6291 10.4066 37.0933 11.871 38.8994 11.8711C40.7055 11.871 42.1698 10.4066 42.1699 8.60059C42.1698 6.79455 40.7055 5.33015 38.8994 5.33008Z" fill="white"/>
</svg>
