<svg width="43" height="71" viewBox="0 0 43 71" fill="none" xmlns="http://www.w3.org/2000/svg">
<path d="M24.0835 46.5681V52.4954H36.398C36.398 60.1885 28.1367 64.7345 21.1808 64.7345H5.96369V42.5537C5.96369 40.2178 7.8531 38.3015 10.2034 38.263C24.0448 38.0112 42.3652 35.8641 42.3652 18.1664C42.3652 8.17574 32.8338 0 21.1843 0H0V70.6652H21.1843C32.8373 70.6652 42.3652 62.4895 42.3652 52.4989V46.5716H24.087L24.0835 46.5681ZM5.96017 32.3637V5.92374H21.1773C28.1332 5.92374 36.3944 10.4697 36.3944 18.1629C36.3944 31.5175 16.6315 33.1331 5.95665 32.3637H5.96017Z" fill="white"/>
</svg>
