<svg width="76" height="68" viewBox="0 0 76 68" fill="none" xmlns="http://www.w3.org/2000/svg">
<path d="M60.881 47.0809L61.026 47.2285C60.9788 47.1781 60.9281 47.1277 60.881 47.0809ZM56.75 47.1781C56.5906 47.0521 56.4384 46.9224 56.297 46.7892C55.2317 46.5154 54.4453 45.5538 54.4453 44.4086C54.4453 43.0472 55.5542 41.9487 56.9203 41.9487C58.2864 41.9487 59.3953 43.0472 59.3953 44.4086C59.3953 44.5598 59.3772 44.7111 59.3518 44.8587L66.9398 52.4003C69.8858 50.5815 70.5127 44.4662 69.7771 41.7974C66.2549 28.9869 46.9661 29.7216 43.4692 40.9403C41.5994 46.944 45.9297 51.9789 49.9375 55.7605C63.1241 67.5879 56.0035 65.7583 75.3177 65.6503L56.6848 47.1313L56.7464 47.1781H56.75ZM53.4959 62.2325L43.8968 53.4988C32.5257 56.985 26.5937 56.1459 18.9441 49.7388C12.494 44.3329 10.0806 33.179 13.8565 25.1368C22.1547 7.45339 46.245 8.13767 54.0721 25.1945L66.8565 25.2341C64.5917 15.085 57.3733 7.4966 48.1293 3.18919C44.9223 1.69096 41.1537 0.72215 37.4213 0.257554C20.3066 -1.86734 7.61652 9.54226 2.84413 20.2532C-7.72977 43.9872 12.3164 74.0526 44.1577 66.3562C46.7631 65.7259 52.1262 63.7991 53.4959 62.2289V62.2325Z" fill="white"/>
</svg>
