<svg width="71" height="71" viewBox="0 0 71 71" fill="none" xmlns="http://www.w3.org/2000/svg">
<path d="M39.8394 35.276C39.8394 32.8924 37.8951 30.9638 35.4969 30.9638C33.0986 30.9638 31.1543 32.8924 31.1543 35.276C31.1543 37.6596 33.0986 39.592 35.4969 39.592C37.8951 39.592 39.8394 37.6596 39.8394 35.276ZM65.8001 35.276C65.8001 50.585 54.1305 63.3337 39.2001 65.1646C38.4512 65.2586 37.7703 65.0518 37.2067 64.5518C36.6393 64.0555 36.3442 63.4088 36.3442 62.6607V62.6457C36.3442 61.3373 37.3428 60.2508 38.6517 60.1268C51.3918 58.9538 60.6065 48.0924 60.6065 35.276C60.6065 21.5724 49.2886 10.32 35.4969 10.32C21.7051 10.32 10.3835 21.5686 10.3835 35.276V62.8863C10.3835 67.112 13.8523 70.5558 18.1002 70.5558H18.244C22.492 70.5558 25.9569 67.112 25.9569 62.8863V35.276C25.9569 30.1141 30.2995 25.8019 35.4931 25.8019C40.6868 25.8019 45.0293 30.1141 45.0293 35.276C45.0293 40.4379 40.6868 44.7539 35.4931 44.7539H33.6925C32.2929 44.7539 31.1506 45.8893 31.1506 47.2803V47.3856C31.1506 48.7766 32.2929 49.9158 33.6925 49.9158H35.4931C43.5503 49.9158 50.2192 43.2876 50.2192 35.276C50.2192 27.2644 43.5503 20.6438 35.4931 20.6438C27.4359 20.6438 20.7633 27.2681 20.7633 35.276V62.8675C20.7633 64.2585 19.6209 65.3939 18.2213 65.3939H18.1154C16.7158 65.3939 15.5734 64.2585 15.5734 62.8675V35.276C15.5734 24.4184 24.5687 15.4819 35.4931 15.4819C46.4175 15.4819 55.4128 24.4221 55.4128 35.276C55.4128 45.3216 47.7188 53.7205 37.9178 54.9235C34.033 55.401 31.1506 58.6417 31.1506 62.5329V62.6795C31.1506 64.9578 32.0395 66.9128 33.7531 68.4241C35.4666 69.9279 37.532 70.5708 39.8016 70.2926C57.3117 68.1647 70.9862 53.2317 70.9862 35.276C70.9938 15.8766 55.0194 0 35.4969 0C15.9744 0 0 15.8766 0 35.276V68.0256C0 69.4204 1.14238 70.5558 2.54198 70.5558H2.64789C4.04749 70.5558 5.18987 69.4204 5.18987 68.0256V35.276C5.19365 18.7226 18.8379 5.15812 35.4969 5.15812C52.1559 5.15812 65.8001 18.7226 65.8001 35.276Z" fill="white"/>
</svg>
