<svg width="71" height="71" viewBox="0 0 71 71" fill="none" xmlns="http://www.w3.org/2000/svg">
<path d="M15.3486 51.8517V40.0037C15.3524 38.462 16.6198 37.1986 18.1709 37.1986H30.0994C30.875 37.1949 31.5446 36.9204 32.0932 36.3752L41.8615 26.6628C42.6863 25.8469 42.9208 24.6813 42.4744 23.6096C42.028 22.5418 41.033 21.8838 39.8677 21.8838H18.1709C16.616 21.8875 15.3524 20.6279 15.3524 19.0863V18.0673C15.3486 16.5256 16.616 15.2622 18.1709 15.2622H52.167C52.9426 15.2622 53.6122 14.9877 54.1646 14.4425L63.8837 4.78284C64.7047 3.96314 64.9393 2.80127 64.4928 1.72964C64.0464 0.661777 63.0514 0 61.8862 0H2.81851C1.26738 0 0 1.25587 0 2.80127V35.281V61.5001C0 62.6583 0.66585 63.6472 1.74029 64.0909C2.81473 64.5308 3.98753 64.3014 4.81228 63.4817L14.5238 53.8258C15.0724 53.2768 15.3486 52.615 15.3486 51.848M52.8329 55.311H18.6514C17.8758 55.3073 17.2062 55.5855 16.6576 56.1307L6.94602 65.7829C6.12128 66.5988 5.8905 67.7645 6.33314 68.8361C6.77956 69.904 7.77455 70.5657 8.93979 70.5657H68.1853C69.7364 70.5657 71.0038 69.3099 71.0038 67.7682V8.88135C71.0038 7.72324 70.3379 6.73433 69.2635 6.2944C68.1891 5.85071 67.0125 6.08384 66.1915 6.89978L56.4724 16.5595C55.9238 17.1047 55.6476 17.7665 55.6476 18.5373V52.506C55.6476 54.0476 54.384 55.311 52.8291 55.311H52.8329Z" fill="white"/>
</svg>
