<svg width="113" height="71" viewBox="0 0 113 71" fill="none" xmlns="http://www.w3.org/2000/svg">
<path d="M67.1224 70.0093L96.5317 19.4763L101.34 27.1164L81.1537 60.9066L86.1435 70.5657L91.7121 61.2337L112.167 26.9961L96.2253 1.64307L86.1738 18.916L81.8233 26.3945L66.7252 52.334L50.9424 26.7592L56.1062 19.5327L61.3343 27.654L58.4517 32.5043L63.8122 40.7836L71.8625 27.7668L55.5236 0.665502L39.4911 27.3532L67.1224 70.0093ZM30.9301 61.6134L25.6301 52.5671L10.6946 27.0825L15.6428 18.5626L33.7447 50.5142L35.1141 52.9243L40.8606 63.0723L44.9008 70.1897L48.3094 65.3921L53.9915 57.1805L48.665 48.9538L45.7785 53.0145L15.7374 0L0 27.1013L25.4674 70.5657L30.9263 61.6134H30.9301Z" fill="white"/>
</svg>
