<svg width="73" height="71" viewBox="0 0 73 71" fill="none" xmlns="http://www.w3.org/2000/svg">
<path d="M8.23611 57.0933V47.2005C9.56025 47.0501 10.9033 46.9674 12.2652 46.9674C27.5041 46.9674 40.4201 56.8752 44.8389 70.5657H70.9508C69.3694 61.6957 65.8056 53.5099 60.7247 46.471C65.4538 43.4404 69.1197 38.8907 71.0075 33.5288C72.8954 28.1744 72.9673 20.9099 71.0075 15.5593C67.6972 6.50873 58.9391 0 48.7281 0H0V31.5848C3.927 30.626 8.03556 30.1146 12.2614 30.1146C33.9545 30.1146 52.5 43.5382 59.9416 62.4853H50.09C40.8703 43.8841 19.5518 34.9839 0 40.8798V70.5657H34.2534C29.8914 61.4663 18.0687 56.1345 8.23233 57.0971M8.23611 8.18197H48.7318C66.0515 8.18197 69.6607 32.0849 55.4206 40.1052C44.5627 28.7873 29.2444 21.7296 12.269 21.7296C10.9146 21.7296 9.5716 21.7747 8.2399 21.865V8.18197H8.23611Z" fill="white"/>
</svg>
