<svg width="47" height="71" viewBox="0 0 47 71" fill="none" xmlns="http://www.w3.org/2000/svg">
<path d="M10.0804 24.9306V18.1029V15.9774L12.0603 15.1139L42.0759 2.00929L46.6845 0V5.00384V16.6416V18.781L44.7019 19.6362L6.58847 36.1035V40.6534L42.0202 26.0238L46.5759 24.1419V29.0433V40.4652V42.5963L44.6072 43.4598L16.8833 55.5902V60.392L22.99 57.6327V55.211L29.5785 52.4407V59.7388V61.845L27.6459 62.7196L14.9535 68.4568L10.2948 70.5657V65.4761V53.4592V51.3281L12.2664 50.4674L39.9874 38.3342V33.942L4.55567 48.5743L0 50.4535V45.5548V33.9669V31.8331L1.98266 30.9751L40.0961 14.5078V10.0077L16.6661 20.2312V22.0938L10.0804 24.9306Z" fill="white"/>
</svg>
