<svg width="50" height="45" viewBox="0 0 50 45" fill="none" xmlns="http://www.w3.org/2000/svg">
<path d="M25 0C37.4264 0 47.5 10.0736 47.5 22.5C47.5 34.9264 37.4264 45 25 45C12.5736 45 2.5 34.9264 2.5 22.5C2.5 10.0736 12.5736 0 25 0ZM25.8809 27.5029C25.8036 29.5454 24.1007 31.1836 22.0137 31.1836C21.3651 31.1835 20.7546 31.024 20.2168 30.7441C18.9834 30.1037 18.1388 28.8277 18.1387 27.3594C18.1387 25.25 19.8776 23.5332 22.0137 23.5332C22.4126 23.5332 22.7948 23.5986 23.1562 23.71V19.0645C22.7818 19.0136 22.4016 18.9824 22.0137 18.9824C17.3356 18.9824 13.5293 22.7399 13.5293 27.3594C13.5294 30.1929 14.9637 32.7006 17.1523 34.2168C18.5298 35.1725 20.2061 35.7353 22.0137 35.7354C26.6922 35.7354 30.4979 31.9777 30.498 27.3594V18.1104C32.3059 19.3913 34.5216 20.1465 36.9121 20.1465V15.5957C35.6245 15.5957 34.4251 15.2179 33.4189 14.5703C31.9747 13.6407 30.9326 12.1524 30.6074 10.4189C30.5372 10.0446 30.4981 9.659 30.498 9.26465H25.8887L25.8809 27.5029Z" fill="white"/>
</svg>
