<svg width="50" height="45" viewBox="0 0 50 45" fill="none" xmlns="http://www.w3.org/2000/svg">
<path d="M25.8662 0.833008C35.6714 0.833008 40.574 0.833795 43.6201 3.87988C46.6662 6.92597 46.667 11.8286 46.667 21.6338V23.3662C46.667 33.1714 46.6662 38.074 43.6201 41.1201C40.574 44.1662 35.6714 44.167 25.8662 44.167H24.1338C14.3286 44.167 9.42597 44.1662 6.37988 41.1201C3.3338 38.074 3.33301 33.1714 3.33301 23.3662V21.6338C3.33301 11.8286 3.33379 6.92597 6.37988 3.87988C9.42597 0.833793 14.3286 0.833008 24.1338 0.833008H25.8662ZM10.6455 14.0137C10.8802 25.2803 16.5142 32.0518 26.3906 32.0518H26.9502V25.6055C30.5793 25.9666 33.3234 28.6212 34.4248 32.0518H39.5527C38.1444 26.9241 34.443 24.0892 32.1318 23.0059C34.4429 21.6697 37.6933 18.4192 38.4697 14.0137H33.8105C32.7994 17.5886 29.8029 20.8395 26.9502 21.1465V14.0137H22.292V26.5088C19.4031 25.7866 15.7553 22.2831 15.5928 14.0137H10.6455Z" fill="white"/>
</svg>
