<svg width="50" height="45" viewBox="0 0 50 45" fill="none" xmlns="http://www.w3.org/2000/svg">
<path d="M25 1.66675C25.043 1.66675 40.6419 1.66801 44.5342 2.91089C46.6866 3.59687 48.3779 5.61111 48.9541 8.17358C49.9954 12.8138 50 22.5017 50 22.5017C50 22.5663 49.9961 32.2041 48.9541 36.8289C48.378 39.3915 46.6867 41.4056 44.5342 42.0916C40.6419 43.3345 25.043 43.3357 25 43.3357C25 43.3357 9.36358 43.3362 5.46582 42.0916C3.31323 41.4057 1.62213 39.3915 1.0459 36.8289C0.00396755 32.2041 1.17326e-05 22.5663 0 22.5017C0 22.5017 0.000459727 12.8138 1.0459 8.17358C1.62221 5.6111 3.31333 3.59685 5.46582 2.91089C9.36367 1.66632 25 1.66675 25 1.66675ZM20.835 31.4294L33.8252 22.5017L20.835 13.574V31.4294Z" fill="white"/>
</svg>
